<svg id="Layer_1" xmlns="http://www.w3.org/2000/svg" width="320" height="325" viewBox="0 0 320 325">
  <style>
    .st0{fill:#ec5664;opacity:0.2}
  </style>
  <path class="st0" d="M287.1 294l-6.3 6.3c-.2.2-.2.5 0 .7.1.1.2.1.4.1s.3 0 .4-.1l6.3-6.3c.2-.2.2-.5 0-.7s-.6-.2-.8 0zm-45.9-.4c-.2-.2-.5-.2-.7 0s-.2.5 0 .7l6.7 6.7c.1.1.2.1.4.1s.3 0 .4-.1c.2-.2.2-.5 0-.7l-6.8-6.7zm-34.1.4l-6.3 6.3c-.2.2-.2.5 0 .7.1.1.2.1.4.1s.3 0 .4-.1l6.3-6.3c.2-.2.2-.5 0-.7s-.6-.2-.8 0zm-45.9-.4c-.2-.2-.5-.2-.7 0s-.2.5 0 .7l6.7 6.7c.1.1.2.1.4.1s.3 0 .4-.1c.2-.2.2-.5 0-.7l-6.8-6.7zm-34.1.4l-6.3 6.3c-.2.2-.2.5 0 .7.1.1.2.1.4.1s.3 0 .4-.1l6.3-6.3c.2-.2.2-.5 0-.7s-.6-.2-.8 0zm-45.9-.4c-.2-.2-.5-.2-.7 0s-.2.5 0 .7l6.7 6.7c.1.1.2.1.4.1s.3 0 .4-.1c.2-.2.2-.5 0-.7l-6.8-6.7zm-34.1.4l-6.3 6.3c-.2.2-.2.5 0 .7.1.1.2.1.4.1s.3 0 .4-.1l6.3-6.3c.2-.2.2-.5 0-.7s-.6-.2-.8 0zm-45.9-.4c-.2-.2-.5-.2-.7 0s-.2.5 0 .7l6.7 6.7c.1.1.2.1.4.1s.3 0 .4-.1c.2-.2.2-.5 0-.7l-6.8-6.7zm239.3-32.1c.1 0 .3 0 .4-.1l6.3-6.3c.2-.2.2-.5 0-.7s-.5-.2-.7 0l-6.3 6.3c-.2.2-.2.5 0 .7 0 .1.2.1.3.1zm46-.1c.1.1.2.1.4.1s.3 0 .4-.1c.2-.2.2-.5 0-.7l-6.3-6.3c-.2-.2-.5-.2-.7 0s-.2.5 0 .7l6.2 6.3zm.6-47.4l-6.3 6.3c-.2.2-.2.5 0 .7.1.1.2.1.4.1s.3 0 .4-.1l6.3-6.3c.2-.2.2-.5 0-.7s-.6-.2-.8 0zm-45.9-.4c-.2-.2-.5-.2-.7 0s-.2.5 0 .7l6.7 6.7c.1.1.2.1.4.1s.3 0 .4-.1c.2-.2.2-.5 0-.7l-6.8-6.7zm-80.7 47.9c.1 0 .3 0 .4-.1l6.3-6.3c.2-.2.2-.5 0-.7s-.5-.2-.7 0l-6.3 6.3c-.2.2-.2.5 0 .7 0 .1.2.1.3.1zm46-.1c.1.1.2.1.4.1s.3 0 .4-.1c.2-.2.2-.5 0-.7l-6.3-6.3c-.2-.2-.5-.2-.7 0s-.2.5 0 .7l6.2 6.3zm.6-47.4l-6.3 6.3c-.2.2-.2.5 0 .7.1.1.2.1.4.1s.3 0 .4-.1l6.3-6.3c.2-.2.2-.5 0-.7s-.6-.2-.8 0zm-45.9-.4c-.2-.2-.5-.2-.7 0s-.2.5 0 .7l6.7 6.7c.1.1.2.1.4.1s.3 0 .4-.1c.2-.2.2-.5 0-.7l-6.8-6.7zm-80.7 47.9c.1 0 .3 0 .4-.1l6.3-6.3c.2-.2.2-.5 0-.7s-.5-.2-.7 0l-6.3 6.3c-.2.2-.2.5 0 .7 0 .1.2.1.3.1zm46-.1c.1.1.2.1.4.1s.3 0 .4-.1c.2-.2.2-.5 0-.7l-6.3-6.3c-.2-.2-.5-.2-.7 0s-.2.5 0 .7l6.2 6.3zm.6-47.4l-6.3 6.3c-.2.2-.2.5 0 .7.1.1.2.1.4.1s.3 0 .4-.1l6.3-6.3c.2-.2.2-.5 0-.7s-.6-.2-.8 0zm-45.9-.4c-.2-.2-.5-.2-.7 0s-.2.5 0 .7l6.7 6.7c.1.1.2.1.4.1s.3 0 .4-.1c.2-.2.2-.5 0-.7l-6.8-6.7zM.5 261.5c.1 0 .3 0 .4-.1l6.3-6.3c.2-.2.2-.5 0-.7s-.5-.2-.7 0l-6.3 6.3c-.2.2-.2.5 0 .7 0 .1.2.1.3.1zm46-.1c.1.1.2.1.4.1s.3 0 .4-.1c.2-.2.2-.5 0-.7l-6.3-6.3c-.2-.2-.5-.2-.7 0s-.2.5 0 .7l6.2 6.3zm.6-47.4l-6.3 6.3c-.2.2-.2.5 0 .7.1.1.2.1.4.1s.3 0 .4-.1l6.3-6.3c.2-.2.2-.5 0-.7s-.6-.2-.8 0zm-45.9-.4c-.2-.2-.5-.2-.7 0s-.2.5 0 .7l6.7 6.7c.1.1.2.1.4.1s.3 0 .4-.1c.2-.2.2-.5 0-.7l-6.8-6.7zm239.3-32.1c.1 0 .3 0 .4-.1l6.3-6.3c.2-.2.2-.5 0-.7s-.5-.2-.7 0l-6.3 6.3c-.2.2-.2.5 0 .7 0 .1.2.1.3.1zm46-.1c.1.1.2.1.4.1s.3 0 .4-.1c.2-.2.2-.5 0-.7l-6.3-6.3c-.2-.2-.5-.2-.7 0s-.2.5 0 .7l6.2 6.3zm.6-47.4l-6.3 6.3c-.2.2-.2.5 0 .7.1.1.2.1.4.1s.3 0 .4-.1l6.3-6.3c.2-.2.2-.5 0-.7s-.6-.2-.8 0zm-45.9-.4c-.2-.2-.5-.2-.7 0s-.2.5 0 .7l6.7 6.7c.1.1.2.1.4.1s.3 0 .4-.1c.2-.2.2-.5 0-.7l-6.8-6.7zm-80.7 47.9c.1 0 .3 0 .4-.1l6.3-6.3c.2-.2.2-.5 0-.7s-.5-.2-.7 0l-6.3 6.3c-.2.2-.2.5 0 .7 0 .1.2.1.3.1zm46-.1c.1.1.2.1.4.1s.3 0 .4-.1c.2-.2.2-.5 0-.7l-6.3-6.3c-.2-.2-.5-.2-.7 0s-.2.5 0 .7l6.2 6.3zm.6-47.4l-6.3 6.3c-.2.2-.2.5 0 .7.1.1.2.1.4.1s.3 0 .4-.1l6.3-6.3c.2-.2.2-.5 0-.7s-.6-.2-.8 0zm-45.9-.4c-.2-.2-.5-.2-.7 0s-.2.5 0 .7l6.7 6.7c.1.1.2.1.4.1s.3 0 .4-.1c.2-.2.2-.5 0-.7l-6.8-6.7zm-80.7 47.9c.1 0 .3 0 .4-.1l6.3-6.3c.2-.2.2-.5 0-.7s-.5-.2-.7 0l-6.3 6.3c-.2.2-.2.5 0 .7 0 .1.2.1.3.1zm46-.1c.1.1.2.1.4.1s.3 0 .4-.1c.2-.2.2-.5 0-.7l-6.3-6.3c-.2-.2-.5-.2-.7 0s-.2.5 0 .7l6.2 6.3zm.6-47.4l-6.3 6.3c-.2.2-.2.5 0 .7.1.1.2.1.4.1s.3 0 .4-.1l6.3-6.3c.2-.2.2-.5 0-.7s-.6-.2-.8 0zm-45.9-.4c-.2-.2-.5-.2-.7 0s-.2.5 0 .7l6.7 6.7c.1.1.2.1.4.1s.3 0 .4-.1c.2-.2.2-.5 0-.7l-6.8-6.7zM.5 181.5c.1 0 .3 0 .4-.1l6.3-6.3c.2-.2.2-.5 0-.7s-.5-.2-.7 0l-6.3 6.3c-.2.2-.2.5 0 .7 0 .1.2.1.3.1zm46-.1c.1.1.2.1.4.1s.3 0 .4-.1c.2-.2.2-.5 0-.7l-6.3-6.3c-.2-.2-.5-.2-.7 0s-.2.5 0 .7l6.2 6.3zm.6-47.4l-6.3 6.3c-.2.2-.2.5 0 .7.1.1.2.1.4.1s.3 0 .4-.1l6.3-6.3c.2-.2.2-.5 0-.7s-.6-.2-.8 0zm-45.9-.4c-.2-.2-.5-.2-.7 0s-.2.5 0 .7l6.7 6.7c.1.1.2.1.4.1s.3 0 .4-.1c.2-.2.2-.5 0-.7l-6.8-6.7zm239.3-35.1c.1 0 .3 0 .4-.1l6.3-6.3c.2-.2.2-.5 0-.7s-.5-.2-.7 0l-6.3 6.3c-.2.2-.2.5 0 .7 0 .1.2.1.3.1zm46-.1c.1.1.2.1.4.1s.3 0 .4-.1c.2-.2.2-.5 0-.7l-6.3-6.3c-.2-.2-.5-.2-.7 0s-.2.5 0 .7l6.2 6.3zm.6-47.4l-6.3 6.3c-.2.2-.2.5 0 .7.1.1.2.1.4.1s.3 0 .4-.1l6.3-6.3c.2-.2.2-.5 0-.7s-.6-.2-.8 0zm-45.9-.4c-.2-.2-.5-.2-.7 0s-.2.5 0 .7l6.7 6.7c.1.1.2.1.4.1s.3 0 .4-.1c.2-.2.2-.5 0-.7l-6.8-6.7zm-80.7 47.9c.1 0 .3 0 .4-.1l6.3-6.3c.2-.2.2-.5 0-.7s-.5-.2-.7 0l-6.3 6.3c-.2.2-.2.5 0 .7 0 .1.2.1.3.1zm46-.1c.1.1.2.1.4.1s.3 0 .4-.1c.2-.2.2-.5 0-.7l-6.3-6.3c-.2-.2-.5-.2-.7 0s-.2.5 0 .7l6.2 6.3zm.6-47.4l-6.3 6.3c-.2.2-.2.5 0 .7.1.1.2.1.4.1s.3 0 .4-.1l6.3-6.3c.2-.2.2-.5 0-.7s-.6-.2-.8 0zm-45.9-.4c-.2-.2-.5-.2-.7 0s-.2.5 0 .7l6.7 6.7c.1.1.2.1.4.1s.3 0 .4-.1c.2-.2.2-.5 0-.7l-6.8-6.7zM80.5 98.5c.1 0 .3 0 .4-.1l6.3-6.3c.2-.2.2-.5 0-.7s-.5-.2-.7 0l-6.3 6.3c-.2.2-.2.5 0 .7 0 .1.2.1.3.1zm46-.1c.1.1.2.1.4.1s.3 0 .4-.1c.2-.2.2-.5 0-.7l-6.3-6.3c-.2-.2-.5-.2-.7 0s-.2.5 0 .7l6.2 6.3zm.6-47.4l-6.3 6.3c-.2.2-.2.5 0 .7.1.1.2.1.4.1s.3 0 .4-.1l6.3-6.3c.2-.2.2-.5 0-.7s-.6-.2-.8 0zm-45.9-.4c-.2-.2-.5-.2-.7 0s-.2.5 0 .7l6.7 6.7c.1.1.2.1.4.1s.3 0 .4-.1c.2-.2.2-.5 0-.7l-6.8-6.7zM.5 98.5c.1 0 .3 0 .4-.1L7.2 92c.2-.2.2-.5 0-.7s-.5-.2-.7 0L.2 97.6c-.2.2-.2.5 0 .7 0 .2.2.2.3.2zm46-.1c.1.1.2.1.4.1s.3 0 .4-.1c.2-.2.2-.5 0-.7L41 91.4c-.2-.2-.5-.2-.7 0s-.2.5 0 .7l6.2 6.3zm.6-47.4l-6.3 6.3c-.2.2-.2.5 0 .7.1.1.2.1.4.1s.3 0 .4-.1l6.3-6.3c.2-.2.2-.5 0-.7s-.6-.2-.8 0zm-45.9-.4c-.2-.2-.5-.2-.7 0s-.2.5 0 .7L7.1 58c.1.1.2.1.4.1s.3 0 .4-.1c.2-.2.2-.5 0-.7l-6.7-6.7zm239.3-32.1c.1 0 .3 0 .4-.1l6.3-6.3c.2-.2.2-.5 0-.7s-.5-.2-.7 0l-6.3 6.3c-.2.2-.2.5 0 .7 0 .1.2.1.3.1zm46-.1c.1.1.2.1.4.1s.3 0 .4-.1c.2-.2.2-.5 0-.7l-6.3-6.3c-.2-.2-.5-.2-.7 0s-.2.5 0 .7l6.2 6.3zm-126 .1c.1 0 .3 0 .4-.1l6.3-6.3c.2-.2.2-.5 0-.7s-.5-.2-.7 0l-6.3 6.3c-.2.2-.2.5 0 .7 0 .1.2.1.3.1zm46-.1c.1.1.2.1.4.1s.3 0 .4-.1c.2-.2.2-.5 0-.7l-6.3-6.3c-.2-.2-.5-.2-.7 0s-.2.5 0 .7l6.2 6.3zm-126 .1c.1 0 .3 0 .4-.1l6.3-6.3c.2-.2.2-.5 0-.7s-.5-.2-.7 0l-6.3 6.3c-.2.2-.2.5 0 .7 0 .1.2.1.3.1zm46-.1c.1.1.2.1.4.1s.3 0 .4-.1c.2-.2.2-.5 0-.7l-6.3-6.3c-.2-.2-.5-.2-.7 0s-.2.5 0 .7l6.2 6.3zm-126 .1c.1 0 .3 0 .4-.1L7.2 12c.2-.2.2-.5 0-.7s-.5-.2-.7 0L.2 17.6c-.2.2-.2.5 0 .7 0 .2.2.2.3.2zm46-.1c.1.1.2.1.4.1s.3 0 .4-.1c.2-.2.2-.5 0-.7L41 11.4c-.2-.2-.5-.2-.7 0s-.2.5 0 .7l6.2 6.3zm54.3 61.9s0 .1 0 0c.1.6.7 1.7 2.2 1.7 1.6 0 2.1-1 2.2-1.6v-2.8c0-.2.1-.6.2-.6 1.4-1 2.1-2.2 2.1-3.7 0-2.4-2-4.3-4.5-4.3s-4.5 1.9-4.5 4.3c0 1.4.7 2.7 2.1 3.6.1.1.2.4.2.6v2.8zm2.2.6c-.9 0-1.1-.5-1.1-.7v-1.1c.3.1.7.2 1.2.2.3 0 .7 0 1.1-.1v1.1c-.1.1-.3.6-1.2.6zm-3.4-7.6c0-1.8 1.5-3.3 3.4-3.3s3.4 1.5 3.4 3.3c0 1.4-.9 2.3-1.7 2.8-.5.4-.5 1.3-.5 1.4v.5c-.9.4-1.8.2-2.2 0v-.4c0-.2 0-.9-.5-1.4-1-.6-1.9-1.5-1.9-2.9zM103 311c-2.5 0-4.5 1.9-4.5 4.3 0 1.4.7 2.7 2.1 3.6.1.1.2.4.2.6v2.8c.1.6.7 1.6 2.2 1.6 1.6 0 2.1-1 2.2-1.6v-2.8c0-.2.1-.6.2-.6 1.4-1 2.1-2.2 2.1-3.7 0-2.3-2-4.2-4.5-4.2zm0 11.9c-.9 0-1.1-.5-1.1-.7v-1.1c.3.1.7.2 1.2.2.3 0 .7 0 1.1-.1v1.1c-.1.1-.3.6-1.2.6zm1.7-4.8c0 .1 0 .1 0 0 0 .1 0 .1 0 0-.6.5-.6 1.3-.6 1.5v.4c-.9.4-1.8.2-2.2 0v-.4c0-.2 0-.9-.5-1.4a3.3 3.3 0 0 1-1.7-2.8c0-1.8 1.5-3.3 3.4-3.3s3.4 1.5 3.4 3.3c-.1 1.3-1 2.2-1.8 2.7zM100.6 159c.1.1.2.4.2.6v2.8c.1.6.7 1.6 2.2 1.6 1.6 0 2.1-1 2.2-1.6v-2.8c0-.2.1-.6.2-.6 1.4-1 2.1-2.2 2.1-3.7 0-2.4-2-4.3-4.5-4.3s-4.5 1.9-4.5 4.3c0 1.5.7 2.7 2.1 3.7zm2.4 3.9c-.9 0-1.1-.5-1.1-.7v-1.1c.3.1.7.2 1.2.2.3 0 .7 0 1.1-.1v1.1c-.1.1-.3.6-1.2.6zm0-10.8c1.9 0 3.4 1.5 3.4 3.3 0 1.4-.9 2.3-1.7 2.8-.5.4-.5 1.3-.5 1.4v.4c-.9.4-1.8.2-2.2 0v-.4c0-.2 0-.9-.5-1.4a3.3 3.3 0 0 1-1.7-2.8c-.2-1.9 1.3-3.3 3.2-3.3zM23 70c-.3 0-.5.2-.5.5v.6c-3 .2-6 1.9-6 4.9 0 .5.4 1 .9 1h5v3.8c0 .6-.5 1.1-1.1 1.1-.6 0-1.1-.5-1.1-1.1 0-.3-.2-.5-.5-.5s-.5.2-.5.5c0 1.2 1 2.2 2.2 2.2 1.1 0 1.9-.8 2.1-1.8V77h5c.5 0 .9-.6.9-1.1 0-3-2.9-4.7-6-4.9v-.6c.1-.2-.1-.4-.4-.4zm5.4 6H17.6c0-2.8 3.3-3.8 5.4-3.8 2.2 0 5.4 1 5.4 3.8zm-4.9 237.1v-.6c0-.3-.2-.5-.5-.5s-.5.2-.5.5v.6c-3 .2-6 1.9-6 4.9 0 .5.4 1 .9 1h5v3.8c0 .6-.5 1.1-1.1 1.1-.6 0-1.1-.5-1.1-1.1 0-.3-.2-.5-.5-.5s-.5.2-.5.5c0 1.2 1 2.2 2.2 2.2 1.1 0 1.9-.8 2.1-1.8V319h5c.5 0 .9-.6.9-1.1.1-3-2.8-4.6-5.9-4.8zm-5.9 4.9c0-2.8 3.3-3.8 5.4-3.8 2.2 0 5.4 1 5.4 3.8H17.6zm-.2-160h5v3.8c0 .6-.5 1.1-1.1 1.1-.6 0-1.1-.5-1.1-1.1 0-.3-.2-.5-.5-.5s-.5.2-.5.5c0 1.2 1 2.2 2.2 2.2 1.1 0 1.9-.8 2.1-1.8V158h5c.5 0 .9-.6.9-1.1 0-3-2.9-4.7-6-4.9v-.6c0-.3-.2-.5-.5-.5s-.5.2-.5.5v.6c-3 .2-6 1.9-6 4.9.1.6.5 1.1 1 1.1zm5.6-4.8c2.2 0 5.4 1 5.4 3.8H17.6c0-2.8 3.2-3.8 5.4-3.8zM298.2 198c-.1.7-.5 1.1-.5 1.1-.2.1-.2.3-.2.5.1.2.2.3.4.4h.3c.5 0 1.6-.1 2.4-1h.6c2.6 0 4.8-1.8 4.8-4s-2.1-4-4.8-4-4.8 1.8-4.8 4c.1 1.2.7 2.2 1.8 3zm3.1-6c2.1 0 3.8 1.3 3.8 3s-1.7 3-3.7 3H300.2s-.1 0-.1.1c-.3.4-.6.6-1 .7.1-.3.2-.6.2-1v-.4l-.1-.1h-.1c-.6-.3-1.5-1.1-1.5-2.3-.1-1.7 1.6-3 3.7-3z"/>
  <path class="st0" d="M307.3 194.6c-.2-.2-.5-.1-.7.1-.2.2-.1.5.1.7.5.3.8 1 .8 1.6 0 1.2-1 2-1.5 2.3h-.1s-.1 0-.1.1v.4c0 .4.1.7.2 1-.3-.1-.7-.3-1-.7 0 0-.1 0-.1-.1l-.1-.1h-1c-.7 0-1.4-.2-2-.4-.2-.1-.5 0-.7.2-.1.2 0 .5.2.7.7.4 1.6.6 2.5.6h.6c.8.9 1.9 1 2.4 1h.3c.2 0 .4-.2.4-.4.1-.2 0-.4-.2-.5 0 0-.4-.4-.5-1.1 1.1-.8 1.7-1.8 1.7-3 0-.9-.5-1.9-1.2-2.4zm-9.1-78.6c-.1.7-.5 1.1-.5 1.1-.2.1-.2.3-.2.5.1.2.2.3.4.4h.3c.5 0 1.6-.1 2.4-1h.6c2.6 0 4.8-1.8 4.8-4s-2.1-4-4.8-4-4.8 1.8-4.8 4c.1 1.2.7 2.2 1.8 3zm3.1-6c2.1 0 3.8 1.3 3.8 3s-1.7 3-3.7 3H300.2s-.1 0-.1.1c-.3.4-.6.6-1 .7.1-.3.2-.6.2-1v-.4l-.1-.1h-.1c-.6-.3-1.5-1.1-1.5-2.3-.1-1.7 1.6-3 3.7-3z"/>
  <path class="st0" d="M308.5 115c0-.9-.5-1.9-1.2-2.4-.2-.2-.5-.1-.7.1-.2.2-.1.5.1.7.5.3.8 1 .8 1.6 0 1.2-1 2-1.5 2.3h-.1s-.1 0-.1.1v.4c0 .4.1.7.2 1-.3-.1-.7-.3-1-.7 0 0-.1 0-.1-.1l-.1-.1h-1c-.7 0-1.4-.2-2-.4-.2-.1-.5 0-.7.2-.1.2 0 .5.2.7.7.4 1.6.6 2.5.6h.6c.8.9 1.9 1 2.4 1h.3c.2 0 .4-.2.4-.4.1-.2 0-.4-.2-.5 0 0-.4-.4-.5-1.1 1.1-.8 1.7-1.8 1.7-3zm-11.7-80.3l3.7 2.1 1.8 4c.1.2.3.3.4.3.2 0 .4-.1.5-.3l5.3-11v-.4c0-.1-.1-.2-.1-.2-.1-.1-.1-.1-.2-.1h-.4l-11 4.7c-.2.1-.3.2-.3.4s.1.4.3.5zm6 4.6l-1.3-2.8 4.9-4.7-3.6 7.5zm2.9-8.3l-4.9 4.7-2.7-1.5 7.6-3.2zm2.8 241.5c0-.1 0-.1 0 0 0-.1-.1-.2-.1-.3-.1-.1-.1-.1-.2-.1h-.4l-11 4.7c-.2.1-.3.2-.3.4s.1.4.3.5l3.7 2.1 1.8 4c.1.2.3.3.4.3.2 0 .4-.1.5-.3l5.3-11v-.3zm-2.8 1.5l-4.9 4.7-2.7-1.5 7.6-3.2zm-2.9 8.3l-1.3-2.8 4.9-4.7-3.6 7.5zM24 231c-3.6 0-6.5 2.3-6.5 5.2 0 1.8 1.3 3.2 2.7 3.9-.2 1-.9 2-.9 2-.1.2-.2.4-.1.6.1.2.3.3.5.3.1 0 2.5-.1 3.5-1.6h.8c3.6 0 6.5-2.3 6.5-5.2 0-2.9-2.9-5.2-6.5-5.2zm0 9.3h-1.1c-.2 0-.4.1-.5.3-.3.7-1.1 1-1.7 1.2.3-.6.5-1.3.5-2 0-.2-.1-.4-.3-.5-1.2-.5-2.4-1.7-2.4-3.1 0-2.2 2.4-4.1 5.4-4.1 3 0 5.4 1.8 5.4 4.1.1 2.2-2.3 4.1-5.3 4.1zM63.5 109c-3.3 0-6 2.7-6 6s2.7 6 6 6 6-2.7 6-6-2.7-6-6-6zm0 11c-2.8 0-5-2.2-5-5s2.2-5 5-5 5 2.2 5 5-2.2 5-5 5z"/>
  <path class="st0" d="M66.7 116c-.2-.1-.5 0-.7.2-.5 1.1-1.5 1.7-2.5 1.7-1.1 0-2-.7-2.5-1.7-.1-.2-.4-.4-.7-.2-.2.1-.4.4-.2.7.7 1.4 2 2.3 3.5 2.3s2.8-.9 3.5-2.3c0-.2-.1-.5-.4-.7z"/>
  <circle class="st0" cx="65.5" cy="114" r="1"/>
  <circle class="st0" cx="61.5" cy="114" r="1"/>
  <path class="st0" d="M63.5 191c-3.3 0-6 2.7-6 6s2.7 6 6 6 6-2.7 6-6-2.7-6-6-6zm0 11c-2.8 0-5-2.2-5-5s2.2-5 5-5 5 2.2 5 5-2.2 5-5 5z"/>
  <path class="st0" d="M66.7 198c-.2-.1-.5 0-.7.2-.5 1.1-1.5 1.7-2.5 1.7-1.1 0-2-.7-2.5-1.7-.1-.2-.4-.4-.7-.2-.2.1-.4.4-.2.7.7 1.4 2 2.3 3.5 2.3s2.8-.9 3.5-2.3c0-.2-.1-.5-.4-.7z"/>
  <circle class="st0" cx="65.5" cy="196" r="1"/>
  <circle class="st0" cx="61.5" cy="196" r="1"/>
  <path class="st0" d="M68.9 34.8c.1-.2.1-.4.1-.7 0-.8-.8-1.6-2.1-1.6h-1.8c.2-.6.4-1.6.3-2.5-.1-1.5-1-2-1.7-2-.4 0-.7.3-.8.8a6.4 6.4 0 0 1-1.7 3.6c-.9.9-2.9 1.2-2.9 1.2-.2 0-.3.1-.4.3 0 .1-.5 1.3-.5 3.2 0 1.9.6 2.7.7 2.8.1.1.2.2.4.2h1.9c.4 0 .8.2 1.3.4.6.3 1.3.6 2.2.6h1.7c.7 0 2.7 0 2.7-1.5 0-.2 0-.3-.1-.5.3-.2.6-.6.6-1.1 0-.3 0-.5-.1-.6.3-.2.6-.6.6-1.2.2-.8 0-1.2-.4-1.4zm-.9 1.7c-.3 0-.5.2-.5.5s.1.5.4.5c0 0 .1.1.1.4 0 .4-.4.5-.5.5-.3 0-.5.3-.5.5 0 .3.2.5.4.5 0 0 .1.1.1.2 0 .4-.9.5-1.7.5H64c-.7 0-1.3-.3-1.8-.5s-1.1-.5-1.7-.5h-1.6c-.1-.3-.3-.9-.3-2 0-1.2.2-2.1.4-2.6.7-.1 2.2-.5 3.2-1.4 1-1 1.7-2.5 1.9-4 .2.1.4.4.5 1 .1 1.2-.4 2.8-.4 2.8-.1.2 0 .3.1.4.1.1.2.2.4.2H67c.7 0 1 .4 1 .6 0 .2 0 .4-.1.4-.3 0-.4.2-.5.5 0 .3.2.5.5.5.2 0 .5.1.5.5.1.4-.2.5-.4.5zm.9 241.3c.1-.2.1-.4.1-.7 0-.8-.8-1.6-2.1-1.6h-1.8c.2-.6.4-1.6.3-2.5-.1-1.5-1-2-1.7-2-.4 0-.7.3-.8.8a6.4 6.4 0 0 1-1.7 3.6c-.9.9-2.9 1.2-2.9 1.2-.2 0-.3.1-.4.3 0 .1-.5 1.3-.5 3.2 0 1.9.6 2.7.7 2.8.1.1.2.2.4.2h1.9c.4 0 .8.2 1.3.4.6.3 1.3.6 2.2.6h1.7c.7 0 2.7 0 2.7-1.5 0-.2 0-.3-.1-.5.3-.2.6-.6.6-1.1 0-.3 0-.5-.1-.6.3-.2.6-.6.6-1.2.2-.8 0-1.2-.4-1.4zm-.9 1.7c-.3 0-.5.2-.5.5s.1.5.4.5c0 0 .1.1.1.4 0 .4-.4.5-.5.5-.3 0-.5.3-.5.5 0 .3.2.5.4.5 0 0 .1.1.1.2 0 .4-.9.5-1.7.5H64c-.7 0-1.3-.3-1.8-.5s-1.1-.5-1.7-.5h-1.6c-.1-.3-.3-.9-.3-2 0-1.2.2-2.1.4-2.6.7-.1 2.2-.5 3.2-1.4 1-1 1.7-2.5 1.9-4 .2.1.4.4.5 1 .1 1.2-.4 2.8-.4 2.8-.1.2 0 .3.1.4.1.1.2.2.4.2H67c.7 0 1 .4 1 .6 0 .2 0 .4-.1.4-.3 0-.4.2-.5.5 0 .3.2.5.5.5.2 0 .5.1.5.5.1.4-.2.5-.4.5zm40-48.5s-.1 0 0 0H107.7s-.1 0-.1.1c-1.6 1.3-3.2.9-5 .4-1.6-.5-3.4-.9-4.8.3-.2 0-.3.1-.3.3v10.5c0 .3.3.5.5.5.3 0 .5-.2.5-.5V238c1.1-.8 2.4-.4 3.8 0 .9.3 1.9.5 2.9.5s1.9-.3 2.9-1c.2-.1.4-.2.4-.4v-5.5c0-.3-.3-.5-.5-.6zm-5.4 6c-1.4-.4-2.8-.8-4.1-.2v-4.3c1.1-.8 2.4-.4 3.8 0 .9.3 1.9.5 2.9.5.7 0 1.5-.2 2.2-.6v4.3c-1.4 1.2-3.1.8-4.8.3zm88.9-.2v-.8l-1.8-3.2c0-.1-.4-.6-1.2-.8-.6-.1-1.3.1-2 .6-.2.2-.3.5-.1.8.2.2.6.3.8.1.4-.3.7-.4 1-.4.3 0 .4.2.4.2l1.1 1.9h-1.1c-1.5 0-3 .3-3.4 1.2-.2-.1-.4-.1-.7-.1-.3 0-.5 0-.7.1-.4-.8-1.9-1.2-3.4-1.2h-1.1l1-1.9s.2-.2.4-.3c.3 0 .6.1 1 .4.2.2.6.2.8-.1.2-.2.2-.6-.1-.8-.7-.5-1.3-.7-2-.6-.8.1-1.2.7-1.3.8l-1.7 3.2c-.1.1-.1.3 0 .4v.6c0 .6 0 1.6.7 2.3.5.5 1.2.7 2.2.7h.6c1.6 0 2.4-1.3 2.7-2.3l.1-.1s.2-.3.7-.3.6.2.7.3l.1.1c.3 1.1 1.1 2.3 2.7 2.4h.6c1 0 1.7-.2 2.2-.7.8-.7.7-1.7.7-2.3l.1-.2zm-10.5 2.1h-.6c-.6 0-1.1-.1-1.4-.4-.4-.4-.4-1.1-.4-1.6v-.2c0-.4 0-.5 1.7-.5 1.5 0 2.3.4 2.3.5.2.6-.3 2.2-1.6 2.2zm8.9-.3c-.3.3-.7.4-1.4.4h-.5c-1.3 0-1.7-1.7-1.7-2.1 0-.2.8-.5 2.3-.5 1.7 0 1.7.1 1.7.5v.2c0 .4.1 1.1-.4 1.5zM222 41c3 0 5.5-2.5 5.5-5.4 0-1.6-.3-2.3-.6-3.2-.2-.5-.4-1-.5-1.8 0-.2-.2-.3-.3-.4-.2-.1-.4 0-.5.1-.8.6-1.3 1.5-1.6 2.2-1-1.3-.3-3.8-.3-3.8.1-.2 0-.4-.2-.5-.1-.1-.4-.2-.6-.1-3.2 1.1-3.7 4.4-3.7 6-.6-.5-.8-1.3-.8-1.3 0-.2-.2-.4-.4-.4s-.4 0-.6.2c0 .1-.9 1.4-.9 3 0 2.9 2.5 5.4 5.5 5.4zm-4.1-6.8c.3.5.9 1.1 1.8 1.4.2.1.4 0 .5-.1.1-.1.2-.3.2-.5 0 0-.5-3.8 2-5.5-.2 1.3-.1 3.4 1.6 4.4.2.1.3.1.5 0s.3-.2.3-.4c.1-.3.3-1.1.8-1.8.1.4.2.7.3 1 .3.8.5 1.4.5 2.8 0 2.3-2 4.3-4.4 4.3s-4.4-2-4.4-4.3c0-.4.1-.9.3-1.3zm8.5 239.4c0-.2-.2-.3-.3-.4-.2-.1-.4 0-.5.1-.8.6-1.3 1.5-1.6 2.2-1-1.3-.3-3.8-.3-3.8.1-.2 0-.4-.2-.5-.1-.1-.4-.2-.6-.1-3.2 1.1-3.7 4.4-3.7 6-.6-.5-.8-1.3-.8-1.3 0-.2-.2-.4-.4-.4s-.4 0-.6.2c0 .1-.9 1.4-.9 3 0 2.9 2.5 5.4 5.5 5.4s5.5-2.5 5.5-5.4c0-1.6-.3-2.3-.6-3.2-.2-.5-.3-1-.5-1.8zm-4.4 9.3c-2.4 0-4.4-2-4.4-4.3 0-.5.1-1 .3-1.4.3.5.9 1.1 1.8 1.4.2.1.4 0 .5-.1.1-.1.2-.3.2-.5 0 0-.5-3.8 2-5.5-.2 1.3-.1 3.4 1.6 4.4.2.1.3.1.5 0s.3-.2.3-.4c.1-.3.3-1.1.8-1.8.1.4.2.7.3 1 .3.8.5 1.4.5 2.8 0 2.4-2 4.4-4.4 4.4zM148.9 28.1s-.7-.1-1.5-.1c-2 0-3.4.4-4.1 1.1-1.5 1.5-2 2.7-2.6 4-.1.1-.1.3-.2.4h-1.8c-.1 0-.2 0-.3.1l-1.6 1.3c-.2.1-.2.3-.2.5s.2.4.4.4l2.3.8 1.8 1.8.8 2.3c.1.2.2.3.4.4h.1c.2 0 .3-.1.4-.2l1.4-1.6c.1-.1.1-.2.1-.4V37c.2-.1.5-.2.7-.3 1.1-.5 2.3-1.1 3.7-2.5 1.4-1.4 1-5.2 1-5.6-.3-.3-.5-.5-.8-.5zm-1.2 5.3c-1.2 1.2-2.3 1.7-3.4 2.3-.3.2-.7.3-1 .5-.2.1-.3.3-.3.5v2l-.6.7-.5-1.5c0-.1-.1-.2-.1-.2l-2-2c-.1-.1-.1-.1-.2-.1l-1.5-.5.7-.6h2c.2 0 .4-.1.5-.3.1-.2.2-.5.3-.7.6-1.2 1.1-2.3 2.4-3.7.5-.5 1.7-.7 3.3-.7h1c.2 1.5.1 3.6-.6 4.3z"/>
  <path class="st0" d="M139.1 38.3c.3-.1.5-.4.4-.7-.1-.3-.4-.5-.7-.4-.1 0-1.1.3-1.7.8-.5.5-.7 2-.7 2.4 0 .1 0 .3.1.4.1.1.2.2.4.2h.1c.5 0 1.9-.1 2.4-.6s.7-1.6.7-1.8c0-.3-.2-.6-.5-.6s-.6.2-.6.5c-.1.4-.2 1-.4 1.2-.1.1-.6.2-1.1.2.1-.5.2-1 .3-1.1.4-.2 1-.4 1.3-.5zm6.6-8.1c-.9 0-1.6.7-1.6 1.6 0 .9.7 1.6 1.6 1.6.9 0 1.6-.7 1.6-1.6 0-.9-.7-1.6-1.6-1.6zm0 2.1c-.3 0-.5-.2-.5-.5s.2-.5.5-.5.5.2.5.5-.2.5-.5.5zm3.2 238.8s-.7-.1-1.5-.1c-2 0-3.4.4-4.1 1.1-1.5 1.5-2 2.7-2.6 4-.1.1-.1.3-.2.4h-1.8c-.1 0-.2 0-.3.1l-1.6 1.3c-.2.1-.2.3-.2.5s.2.4.4.4l2.3.8 1.8 1.8.8 2.3c.1.2.2.3.4.4h.1c.2 0 .3-.1.4-.2l1.4-1.6c.1-.1.1-.2.1-.4V280c.2-.1.5-.2.7-.3 1.1-.5 2.3-1.1 3.7-2.5 1.4-1.4 1-5.2 1-5.6-.3-.3-.5-.5-.8-.5zm-1.2 5.3c-1.2 1.2-2.3 1.7-3.4 2.3-.3.2-.7.3-1 .5-.2.1-.3.3-.3.5v2l-.6.7-.5-1.5c0-.1-.1-.2-.1-.2l-2-2c-.1-.1-.1-.1-.2-.1l-1.5-.5.7-.6h2c.2 0 .4-.1.5-.3.1-.2.2-.5.3-.7.6-1.2 1.1-2.3 2.4-3.7.5-.5 1.7-.7 3.3-.7h1c.2 1.5.1 3.6-.6 4.3z"/>
  <path class="st0" d="M139.8 281c-.3 0-.6.2-.6.5-.1.4-.2 1-.4 1.2-.1.1-.6.2-1.1.2.1-.5.2-1 .3-1.1.2-.2.8-.5 1.2-.6.3-.1.5-.4.4-.7-.1-.3-.4-.5-.7-.4-.1 0-1.1.3-1.7.8-.5.5-.7 2-.7 2.4 0 .1 0 .3.1.4.1.1.2.2.4.2h.1c.5 0 1.9-.1 2.4-.6s.7-1.6.7-1.8c.1-.2-.1-.5-.4-.5zm5.9-7.8c-.9 0-1.6.7-1.6 1.6 0 .9.7 1.6 1.6 1.6.9 0 1.6-.7 1.6-1.6 0-.9-.7-1.6-1.6-1.6zm0 2.1c-.3 0-.5-.2-.5-.5s.2-.5.5-.5.5.2.5.5-.2.5-.5.5zm43.1 40.6l-3.3-.3-.1-.1-1.3-3.1c-.1-.3-.3-.4-.6-.4s-.5.2-.6.4l-1.3 3.1-.1.1-3.3.3c-.3 0-.5.2-.6.4-.1.2 0 .5.2.7l2.5 2.5v.1l-1 3.4c-.1.3 0 .5.1.6.2.3.6.3.9.1l3.2-2.2h.1l3.2 2.2c.1.1.3.1.4.1.2 0 .4-.1.5-.2.1-.1.2-.3.1-.6l-1-3.4v-.1l2.5-2.5c.2-.2.3-.5.2-.7-.1-.2-.4-.4-.7-.4zm-2.7 3c-.3.3-.4.7-.3 1.1l.7 2.5-2.4-1.6c-.2-.1-.4-.2-.6-.2-.2 0-.4.1-.6.2l-2.4 1.6.7-2.5c.1-.4 0-.8-.3-1.1l-2-2.1 2.6-.2c.4 0 .8-.3.9-.7l1-2.3 1 2.3c.2.4.5.6.9.7l2.6.2-1.8 2.1zm3.2-244.8c.2-.2.3-.5.2-.7-.1-.2-.3-.4-.6-.4l-3.3-.3-.1-.1-1.3-3.1c-.1-.3-.3-.4-.6-.4s-.5.2-.6.4l-1.3 3.1-.1.1-3.3.3c-.3 0-.5.2-.6.4-.1.2 0 .5.2.7l2.5 2.5v.1l-1 3.4c-.1.3 0 .5.1.6.2.3.6.3.9.1l3.2-2.2h.1l3.2 2.2c.1.1.3.1.4.1.2 0 .4-.1.5-.2.1-.1.2-.3.1-.6l-1-3.4v-.1l2.4-2.5zm-3.2 1.8c-.3.3-.4.7-.3 1.1l.7 2.5-2.4-1.6c-.2-.1-.4-.2-.6-.2-.2 0-.4.1-.6.2l-2.4 1.6.7-2.5c.1-.4 0-.8-.3-1.1l-2-2.1 2.6-.2c.4 0 .8-.3.9-.7l1-2.3 1 2.3c.2.4.5.6.9.7l2.6.2-1.8 2.1zm-8.4 81.2l2.5 2.5v.1l-1 3.4c-.1.3 0 .5.1.6.2.3.6.3.9.1l3.2-2.2h.1l3.2 2.2c.1.1.3.1.4.1.2 0 .4-.1.5-.2.1-.1.2-.3.1-.6l-1-3.4v-.1l2.5-2.5c.2-.2.3-.5.2-.7-.1-.2-.3-.4-.6-.4l-3.3-.3-.1-.1-1.3-3.1c-.1-.3-.3-.4-.6-.4s-.5.2-.6.4l-1.3 3.1-.1.1-3.3.3c-.3 0-.5.2-.6.4-.2.2-.1.4.1.7zm3.8-.5c.4 0 .8-.3.9-.7l1-2.3 1 2.3c.2.4.5.6.9.7l2.6.2-2 2.1c-.3.3-.4.7-.3 1.1l.7 2.5-2.4-1.6c-.2-.1-.4-.2-.6-.2-.2 0-.4.1-.6.2l-2.4 1.6.7-2.5c.1-.4 0-.8-.3-1.1l-2-2.1 2.8-.2zm81.6 155.5c-.1.2-3.6 4.1-3.6 7.8 0 2.3 1.8 4.1 4 4.1s4-1.8 4-4.1c0-3.7-3.5-7.6-3.6-7.8a.6.6 0 0 0-.8 0zm.4 10.9c-1.7 0-3-1.4-3-3.1 0-2.6 2.1-5.6 3-6.7.9 1.1 3 4 3 6.7 0 1.7-1.3 3.1-3 3.1zm0-160c2.2 0 4-1.8 4-4.1 0-3.7-3.5-7.6-3.6-7.8-.2-.2-.6-.2-.7 0-.1.2-3.6 4.1-3.6 7.8a3.9 3.9 0 0 0 3.9 4.1zm0-10.7c.9 1.1 3 4 3 6.7 0 1.7-1.3 3.1-3 3.1s-3-1.4-3-3.1c0-2.7 2.1-5.7 3-6.7zm-34.4 39c-.2-.2-.5-.3-.9-.3-.5 0-1.2.2-2.1 1l-2.3 2.5h-6.3c-.2 0-.4.1-.5.3l-.5 1c-.1.1-.1.3 0 .5s.2.3.4.3l4 1-1.5 1.9H218c-.1 0-.3 0-.4.1l-1.1 1c-.2.1-.2.3-.2.5.1.2.2.4.4.4l1.9.4.4 1.8c0 .2.1.3.3.4h.2c.1 0 .2 0 .2-.1l1.1-.5c.2-.1.3-.3.3-.5v-2l1.8-1.5.9 4c0 .2.1.3.3.4.2.1.3.1.5 0l1.1-.5c.2-.1.3-.3.3-.5v-6.3l2.3-2.3c.7-.8.9-1.5.9-1.9.3-.5.1-.9-.1-1.1zm-3.8 4.7c-.1.1-.2.2-.2.4v6.2l-.2.1-.9-4.2c0-.2-.2-.3-.3-.4-.2-.1-.4 0-.5.1l-2.7 2.2c-.1.1-.2.3-.2.4v1.8l-.2.1-.4-1.5c-.1-.3-.4-.5-.7-.4l-.9-.2.1-.1h1.4c.2 0 .3-.1.4-.2l2.2-2.8c.1-.1.1-.3.1-.5-.1-.2-.2-.3-.4-.3l-4.2-1v-.1h6.2c.1 0 .3-.1.4-.2l2.4-2.6c.7-.8 1.3-.7 1.5-.7.1.2.2.7-.6 1.4l-2.3 2.5zm2.9-88c-.5 0-1.2.2-2.1 1l-2.3 2.5h-6.3c-.2 0-.4.1-.5.3l-.5 1c-.1.1-.1.3 0 .5s.2.3.4.3l4 1-1.5 1.9H218c-.1 0-.3 0-.4.1l-1.1 1c-.2.1-.2.3-.2.5.1.2.2.4.4.4l1.9.4.4 1.8c0 .2.1.3.3.4h.2c.1 0 .2 0 .2-.1l1.1-.5c.2-.1.3-.3.3-.5v-2l1.8-1.5.9 4c0 .2.1.3.3.4.2.1.3.1.5 0l1.1-.5c.2-.1.3-.3.3-.5v-6.3l2.3-2.3c.7-.8.9-1.5.9-1.9 0-.5-.2-.9-.4-1.1.1-.2-.2-.3-.6-.3zm-2.9 5c-.1.1-.2.2-.2.4v6.2l-.2.1-.9-4.2c0-.2-.2-.3-.3-.4-.2-.1-.4 0-.5.1l-2.7 2.2c-.1.1-.2.3-.2.4v1.8l-.2.1-.4-1.5c-.1-.3-.4-.5-.7-.4l-.9-.2.1-.1h1.4c.2 0 .3-.1.4-.2l2.2-2.8c.1-.1.1-.3.1-.5-.1-.2-.2-.3-.4-.3l-4.2-1v-.1h6.2c.1 0 .3-.1.4-.2l2.4-2.6c.7-.8 1.3-.7 1.5-.7.1.2.2.7-.6 1.4l-2.3 2.5zm43.3 120c-.6-.6-1.4-1-2.3-1-.8 0-1.6.3-2.3.9l-.5.4-.5-.4c-.6-.6-1.4-.9-2.3-.9-.9 0-1.7.3-2.3 1a3.29 3.29 0 0 0 0 4.6l4 5c.3.3.6.5 1 .5s.8-.2 1.1-.5l4-5a3.3 3.3 0 0 0 .1-4.6zm-4.8 8.9c-.2.2-.4.2-.6 0l-4-5c-.9-.9-.9-2.3 0-3.2.4-.4 1-.7 1.6-.7.6 0 1.2.2 1.6.7l.8.7s.1 0 .1.1c.1 0 .1.1.2.1h.1s.1 0 .1-.1l.8-.7c.4-.4 1-.7 1.6-.7.6 0 1.2.2 1.6.7.9.9.9 2.3 0 3.2l-3.9 4.9zM143.5 108c-1.9 0-3.5 1.6-3.5 3.5v2.9l-1.4 2.5c-.1.3-.1.6 0 .8.1.2.4.4.7.4h2.2c0 1.1.9 2 2 2a2 2 0 0 0 2-2h2.2c.3 0 .6-.1.7-.4.1-.2.1-.5 0-.8l-1.4-2.4v-2.9c0-2-1.6-3.6-3.5-3.6zm0 11c-.6 0-1-.4-1-1h2c0 .6-.5 1-1 1zm-3.9-2l1.3-2.3v-3.2c0-1.4 1.1-2.5 2.5-2.5s2.5 1.1 2.5 2.5v3.2l1.3 2.3h-7.6zm3.9 74c-1.9 0-3.5 1.6-3.5 3.5v2.9l-1.4 2.5c-.1.3-.1.6 0 .8.1.2.4.4.7.4h2.2c0 1.1.9 2 2 2a2 2 0 0 0 2-2h2.2c.3 0 .6-.1.7-.4.1-.2.1-.5 0-.8l-1.4-2.4v-2.9c0-2-1.6-3.6-3.5-3.6zm0 11c-.6 0-1-.4-1-1h2c0 .6-.5 1-1 1zm-3.9-2l1.3-2.3v-3.2c0-1.4 1.1-2.5 2.5-2.5s2.5 1.1 2.5 2.5v3.2l1.3 2.3h-7.6zm129-128c-.6-.6-1.4-1-2.3-1-.8 0-1.6.3-2.3.9l-.5.4-.5-.4c-.6-.6-1.4-.9-2.3-.9-.9 0-1.7.3-2.3 1a3.29 3.29 0 0 0 0 4.6l4 5c.3.3.6.5 1 .5s.8-.2 1.1-.5l4-5a3.3 3.3 0 0 0 .1-4.6zm-4.8 8.9c-.2.2-.4.2-.6 0l-4-5c-.9-.9-.9-2.3 0-3.2.4-.4 1-.7 1.6-.7.6 0 1.2.2 1.6.7l.8.7s.1 0 .1.1c.1 0 .1.1.2.1h.1s.1 0 .1-.1l.8-.7c.4-.4 1-.7 1.6-.7.6 0 1.2.2 1.6.7.9.9.9 2.3 0 3.2l-3.9 4.9z"/>
</svg>
