<?xml version="1.0" encoding="utf-8"?>
<!-- Generator: Adobe Illustrator 19.0.0, SVG Export Plug-In . SVG Version: 6.00 Build 0)  -->
<svg width="230" version="1.1" id="Layer_1" xmlns="http://www.w3.org/2000/svg" xmlns:xlink="http://www.w3.org/1999/xlink" x="0px" y="0px"
	 viewBox="0 0 117.5 65" style="enable-background:new 0 0 117.5 65;" xml:space="preserve">
<style type="text/css">
	.st0{fill:#EA544E;}
</style>
<g id="S9Dcn9.tif">
	<g id="XMLID_1_">
		<path id="XMLID_68_" class="st0" d="M15.8,0c0.6,0,1.3,0,1.9,0.1c2.3,0.3,3.9,2.2,3.8,4.5c-0.1,2.1-0.7,4.1-2.3,5.6
			c-1.4,1.4-3.1,1-3.9-0.6c0.7-1,1.4-2,2.1-2.9c0.1-0.2,0.2-0.4,0.3-0.6c0.3-1,0.6-2-0.3-2.8c-0.8-0.8-1.8-0.5-2.8-0.2
			c-1.9,0.7-3.4,2.1-4.7,3.7c-2.9,3.4-5,7.3-5.8,11.8c-0.3,1.5-0.3,3.1,0.2,4.6c0.7,2.3,2.4,2.9,4.5,1.8c1.6-0.9,2.8-2.3,3.7-3.9
			c1.2-2.1,2.2-4.3,3.2-6.5c0.2-0.5,0.4-0.7,0.9-0.5c0.3,0.1,0.7,0.2,1,0.3c1.3,0.4,1.9,1.2,1.7,2.6c-0.4,2.5-0.9,5.1-1.3,7.6
			c0,0.3-0.1,0.5,0,0.9c1-1.2,2.1-2.4,3-3.7c1.1-1.8,2.2-3.6,3.1-5.5c1-2.1,2-4,3.8-5.5c0.5-0.4,1.1-0.7,1.7-0.9
			c1.5-0.6,3,0,3.8,1.3c0.1,0.2,0.2,0.4,0.4,0.6c0.3-0.5,0.6-0.9,0.9-1.4c0.5-0.6,1.2-0.9,2-0.7c1.1,0.3,1.3,0.7,1,1.7
			c-1.2,3.5-2.3,6.9-2.8,10.6c-0.1,0.5-0.1,1,0,1.5c0.1,0.8,0.7,1,1.3,0.5c0.5-0.4,1-0.9,1.3-1.5c1.8-2.8,2.9-5.9,3.9-9
			c0.5-1.5,0.3-3.2,0.5-4.9c1.1-0.1,2.3-0.1,3.1,0.8c0.9,1,0.4,2.1,0.3,3.4c0.4-0.7,0.7-1.3,1.1-1.8c1-1.5,2.2-2.9,4.1-3.5
			c1.8-0.5,3.3,0.3,3.7,2.2c0.2,0.7,0.2,1.5,0.3,2.4c0.6-0.9,1.1-1.8,1.7-2.6c0.9-1.2,2-2.3,3.5-2.9c2.2-0.8,3.9,0.3,3.9,2.7
			c0,1.6-0.3,3.2-0.6,4.8c-0.3,2-0.8,3.9-1.2,5.8c0,0.2,0,0.4,0,0.5c0.1,1,0.7,1.3,1.4,0.7c0.7-0.6,1.4-1.4,1.8-2.2
			c1.1-2.1,2.1-4.2,2.9-6.4c1-2.6,2.3-5,4.6-6.7c1.2-0.8,2.5-1.2,3.9-1.2c2.8,0.1,4.4,2.5,3.6,5.1c-0.6,2-2,3.5-3.8,4.5
			c-1.6,1-3.4,1.8-5.2,2.8c0.1,0.8,0.2,1.9,1.1,2.7c0.9,0.7,1.9,0.4,2.8-0.1c0.5-0.2,1-0.6,1.4-0.9c1.9-1.7,3.3-3.7,4.5-5.9
			c0.8-1.4,1.4-2.9,2.1-4.3c1.2,0.1,1.4,0.5,1,1.6c-1.4,3.5-3,6.9-5.5,9.7c-1,1.1-2.1,2.1-3.3,2.8c-3.3,1.9-6.5,0.6-7.6-3.1
			c-0.1-0.3-0.2-0.6-0.3-1c-0.7,1.2-1.4,2.3-2.1,3.4c-0.7,1-1.6,1.9-2.7,2.4c-2,0.9-3.8-0.1-4.2-2.2c-0.3-1.7,0-3.4,0.3-5.1
			c0.4-1.9,0.8-3.7,1.2-5.6c0.1-0.6,0.3-1.4-0.4-1.8c-0.7-0.3-1.3,0.3-1.7,0.8c-1.5,1.6-2.4,3.6-3.2,5.6c-1.1,2.7-1.7,5.6-1.6,8.5
			c0,0.7-0.2,0.8-0.9,0.8c-2.1,0-3-0.9-2.8-3c0.3-2.6,0.8-5.2,1.2-7.8c0.2-1,0.3-2.1,0.3-3.2c0-1-0.6-1.4-1.4-0.7
			c-0.9,0.7-1.7,1.6-2.3,2.5c-2.3,3.6-3.5,7.6-3.7,11.9c0,0.5,0,1-0.1,1.5c-3.3,0.8-4.1-0.7-3.7-4.4c-0.3,0.6-0.5,1-0.8,1.4
			c-0.6,0.8-1.1,1.7-1.9,2.5c-2.2,2.2-4.5,1.6-5.5-1.5c-0.2,0.3-0.4,0.6-0.6,0.8c-0.8,0.8-1.5,1.7-2.4,2.3c-1.6,1-3.4,0.5-4.4-1.1
			c-0.7-1.2-1.1-2.5-1.2-3.8c0-0.3-0.1-0.6-0.1-1c-0.2,0.2-0.3,0.3-0.4,0.4c-1.5,1.8-3,3.7-4.6,5.5c-0.5,0.5-0.8,1.1-0.9,1.8
			c-1,3.9-2.1,7.8-4.1,11.4c-0.4,0.8-1,1.5-1.5,2.3c-1,1.3-2.2,2.3-3.8,2.8c-0.3,0-0.6,0.1-0.9,0.1c-2.7-0.8-3.7-2.5-2.9-5.3
			c0.4-1.7,1.3-3.2,2.6-4.5c2.3-2.3,4.7-4.5,7-6.7c0.3-0.3,0.6-0.7,0.7-1.1c0.5-2.2,1-4.4,1.4-6.6c0-0.1,0-0.3,0-0.7
			c-0.4,0.6-0.6,1-0.8,1.4c-1.4,2.1-3,4-5.3,5.1c-4,2-7.6,0.3-8.8-4c-0.5-1.9-0.5-3.7-0.2-5.6c0.8-4.7,3-8.8,6-12.5
			c1.9-2.3,4.2-4.2,7-5.3c0.8-0.3,1.6-0.5,2.4-0.7C15.7,0,15.8,0,15.8,0z M32.4,14.7c-0.1-0.7-0.2-1.5-1-1.7
			c-0.8-0.2-1.3,0.3-1.8,0.8c-0.3,0.3-0.5,0.6-0.7,0.9c-0.4,0.7-0.8,1.5-1.1,2.3c-0.8,2-1.3,4.1-1,6.3c0.1,0.7,0.2,1.5,1.1,1.7
			c0.8,0.2,1.4-0.4,1.8-1C31.5,21.2,32.3,18.1,32.4,14.7z M12.5,33.3c-2.1,2-4.1,4-5.6,6.5c-0.4,0.7-0.6,1.4-0.7,2.2
			c-0.1,0.4,0.2,1,0.6,1.2c0.3,0.2,0.9,0,1.2-0.2C8.6,42.6,9,42,9.3,41.5C10.9,39,11.7,36.1,12.5,33.3z M71.3,14.7
			c2.3-1,4.2-2.1,5.3-4.2c0.5-1,0.5-1.9-0.1-2.3C76,7.8,75,8,74.2,8.7C72.6,10.3,71.9,12.3,71.3,14.7z"/>
		<path id="XMLID_6_" class="st0" d="M63.1,41.5c-0.5,1.8-0.9,3.6-1.4,5.4c-1.1,3.6-3.1,6.6-6.1,8.9c-0.3,0.2-0.5,0.6-0.7,1
			c-0.8,1.6-1.9,3-3.4,3.9c-2.6,1.6-5.3,0.8-6.7-1.8c-2.6-4.8-0.8-12.6,3.6-15.8c1.5-1.1,3.1-1.6,4.9-1.1c0.3,0.1,0.7,0.2,1,0.4
			c1.7,0.9,2,2.5,0.7,4c1.3,2.1,1.3,4.4,1.2,6.7c0.1,0,0.1,0.1,0.2,0.1c0.8-1,1.6-2,2.3-3c1.8-2.8,2.4-6,3-9.1c0-0.2,0-0.4-0.1-0.5
			c-1.3-1.2-1.5-2.7-1.4-4.3c0-0.7,0.2-1.4,0.3-2.1c0-0.4,0.2-0.6,0.7-0.5c1.9,0.1,2.8,1,2.8,2.9c0,1-0.1,2.1-0.2,3.2
			c1.1,0.4,2.3,0.8,3.5,1.2c0.7,0.2,1.3,0.6,1.9,0.9c0.7,0.4,1,1,0.8,1.8c-0.2,1.1-0.5,2.2-0.8,3.3c-0.5,1.9-1.1,3.7-1.5,5.6
			c-0.1,0.5-0.1,1.1,0,1.6c0.1,0.7,0.6,0.9,1.1,0.5c0.5-0.4,1.1-0.9,1.4-1.4c1.6-2.3,2.5-4.9,3.6-7.5c0.9-2.3,1.2-4.7,1.5-7.2
			c-1.3,0.2-2.4,0.4-3.6,0.6c-0.1-1.9,0.6-2.8,2.5-3.2c1.4-0.3,1.4-0.3,1.5-1.7c0.1-2.3,0.2-4.6,0.4-7.1c0.9,0.1,1.9,0.1,2.8,0.3
			c1,0.2,1.6,1,1.5,2.1c-0.1,1.5-0.3,2.9-0.5,4.4c0,0.3-0.1,0.6-0.1,1c2.5-0.4,5-0.9,7.4-1.3c0.2,1.1-0.2,2.1-1.1,2.7
			c-0.5,0.3-1.1,0.5-1.7,0.6c-1.5,0.3-3.1,0.5-4.6,0.8c-0.2,0-0.6,0.3-0.6,0.5c-0.5,3.8-0.9,7.5-1.3,11.3c-0.1,0.6,0.1,1.3,0.3,2
			c0.3,1.2,1.3,1.7,2.3,1.1c0.8-0.4,1.7-1,2.3-1.8c2.2-2.5,3.6-5.5,4.7-8.6c0.8-2.3,1.7-4.4,3.5-6.1c0.1-0.1,0.3-0.2,0.4-0.3
			c2.2-1.6,4-1.3,5.5,1c0.3-0.5,0.5-1,0.8-1.4c0.5-0.7,1.1-1,2-0.9c1.1,0.2,1.3,0.6,1,1.6c-0.9,3.6-1.9,7.1-2.1,10.9
			c0,0.5,0,1,0.2,1.5c0.2,0.7,0.8,0.9,1.3,0.4c0.5-0.5,1-1.1,1.3-1.7c2.1-4.4,3.5-8.9,4-13.8c0.4-3.8,0.8-7.7,0.5-11.7
			c1,0.1,1.9,0,2.8,0.2c1.2,0.2,1.8,0.9,1.8,2.1c-0.1,1.9-0.3,3.8-0.5,5.6c-0.6,4.2-1.4,8.3-2,12.5c-0.2,1-0.2,2.1-0.2,3.1
			c0,0.5,0.1,1,0.3,1.5c0.4,1,1.2,1.3,2,0.6c0.9-0.7,1.6-1.6,2.3-2.5c1.8-2.6,2.8-5.6,3.8-8.6c0.1-0.3,0.2-0.5,0.3-0.8
			c1.5,0.2,1.4,0.7,1.1,1.6c-1.1,3.5-2.3,6.9-4.4,10c-0.8,1.2-1.8,2.3-2.9,3.1c-2.3,1.7-4.7,0.9-5.6-1.8c-0.3-0.8-0.3-1.7-0.5-2.8
			c-0.3,0.8-0.5,1.5-0.9,2.1c-0.7,1.2-1.4,2.4-2.2,3.6c-0.4,0.5-1,0.9-1.6,1.2c-1.3,0.6-2.6,0.2-3.4-1.1c-0.2-0.4-0.4-0.8-0.6-1.2
			c-0.5,0.7-1,1.5-1.5,2.1c-0.3,0.4-0.8,0.8-1.2,1.1c-1.6,1-3.4,0.7-4.4-0.9c-0.7-1.1-1-2.4-1.5-3.6c-0.1-0.2-0.1-0.5-0.2-0.9
			c-0.7,1.1-1.2,2.1-1.9,3.1c-1.3,1.9-2.7,3.6-4.9,4.5c-2.7,1.2-5.2,0-5.9-2.9c-0.2-0.8-0.3-1.7-0.4-2.5c-0.1,0.2-0.2,0.4-0.3,0.6
			c-1,2.1-2,4.2-3.8,5.8c-0.8,0.8-1.8,1.4-2.9,1.5c-1.6,0.2-3-0.9-3.4-2.7c-0.4-1.6-0.2-3.1,0.3-4.6c0.5-1.8,1.1-3.6,1.7-5.3
			C65.8,43.2,65.5,42.5,63.1,41.5z M52.9,45.3c-0.6-0.4-1.4-0.5-2-0.1c-0.7,0.5-1.5,1.2-2,1.9c-1.2,1.8-1.7,4-1.7,6.1
			c0,1.2,0.2,2.4,0.4,3.5c0.1,0.8,0.6,1.4,1.5,1.5c0.8,0.1,1.4-0.5,1.7-1.1c1.8-3.3,2.4-6.7,0.4-10.4C51.7,46.3,52.3,45.8,52.9,45.3
			z M95.5,39.8c0-0.2-0.1-0.4-0.1-0.6c-0.3-1.1-1.1-1.4-2-0.7c-0.5,0.4-1,0.9-1.2,1.5c-0.6,1.4-1.2,2.9-1.5,4.4
			c-0.4,1.6-0.6,3.3,0,4.9c0.2,0.5,0.6,1.1,1,1.2c0.4,0.1,1-0.4,1.4-0.7c0.2-0.1,0.3-0.3,0.4-0.5C95.1,46.2,95.7,43.1,95.5,39.8z"/>
		<path id="XMLID_3_" class="st0" d="M29.8,54.5c-0.5,3.3-1,6.6-0.5,10.1C28.5,64.8,27.7,65,27,65c-1.2,0-2-0.8-2-2
			c0-1.6,0.3-3.2,0.5-4.8c0.8-5.5,1.7-10.9,2.5-16.4c0.3-1.9,0.1-3.9,0.1-5.8c0-0.2,0-0.5,0-0.7c3-0.7,4.2,0.5,4.1,2.7
			c0.4-0.6,0.8-1,1.1-1.5c1-1.2,2.1-2.2,3.5-2.7c2.1-0.9,4.1-0.3,5.5,1.5c1.4,1.8,1.7,4,1.7,6.2c-0.1,4.6-1.7,8.7-5.2,11.9
			c-1.7,1.5-3.6,2.5-6,2.2C31.8,55.4,30.8,54.9,29.8,54.5z M39.7,39.6c-0.1-0.4-0.2-0.9-0.4-1.3c-0.6-1.5-2-2-3.4-1.2
			c-0.6,0.4-1.2,0.9-1.7,1.4c-1.3,1.5-2,3.3-2.5,5.1c-0.5,2.3-0.9,4.7-1.3,7c-0.1,0.6,0.1,0.9,0.5,1.2c1.9,1.3,3.9,1,5.6-1.1
			C39.2,47.5,40.1,43.7,39.7,39.6z"/>
	</g>
</g>
</svg>
