<?xml version="1.0" encoding="UTF-8" standalone="no"?>
<svg
   xmlns:dc="http://purl.org/dc/elements/1.1/"
   xmlns:cc="http://creativecommons.org/ns#"
   xmlns:rdf="http://www.w3.org/1999/02/22-rdf-syntax-ns#"
   xmlns:svg="http://www.w3.org/2000/svg"
   xmlns="http://www.w3.org/2000/svg"
   xmlns:sodipodi="http://sodipodi.sourceforge.net/DTD/sodipodi-0.dtd"
   xmlns:inkscape="http://www.inkscape.org/namespaces/inkscape"
   version="1.1"
   id="svg2"
   xml:space="preserve"
   width="260"
   viewBox="0 0 368.97467 324.89334"
   sodipodi:docname="Score.ai"><metadata
     id="metadata8"><rdf:RDF><cc:Work
         rdf:about=""><dc:format>image/svg+xml</dc:format><dc:type
           rdf:resource="http://purl.org/dc/dcmitype/StillImage" /></cc:Work></rdf:RDF></metadata><defs
     id="defs6"><clipPath
       clipPathUnits="userSpaceOnUse"
       id="clipPath50"><path
         d="M 0,243.67 H 276.731 V 0 H 0 Z"
         id="path48" /></clipPath></defs><sodipodi:namedview
     pagecolor="#ffffff"
     bordercolor="#666666"
     borderopacity="1"
     objecttolerance="10"
     gridtolerance="10"
     guidetolerance="10"
     inkscape:pageopacity="0"
     inkscape:pageshadow="2"
     inkscape:window-width="640"
     inkscape:window-height="480"
     id="namedview4" /><g
     id="g10"
     inkscape:groupmode="layer"
     inkscape:label="Score"
     transform="matrix(1.3333333,0,0,-1.3333333,0,324.89333)"><g
       id="g12"
       transform="translate(225.6521,171.8328)"><path
         d="M 0,0 19.674,14.038"
         style="fill:none;stroke:#ec5664;stroke-width:2;stroke-linecap:round;stroke-linejoin:miter;stroke-miterlimit:10;stroke-dasharray:none;stroke-opacity:1"
         id="path14" /></g><g
       id="g16"
       transform="translate(25.1726,58.2879)"><path
         d="M 0,0 10.894,7.858"
         style="fill:none;stroke:#ec5664;stroke-width:2;stroke-linecap:round;stroke-linejoin:miter;stroke-miterlimit:10;stroke-dasharray:none;stroke-opacity:1"
         id="path18" /></g><g
       id="g20"
       transform="translate(38.8845,168.6892)"><path
         d="M 0,0 -24.172,17.615"
         style="fill:none;stroke:#ec5664;stroke-width:2;stroke-linecap:round;stroke-linejoin:miter;stroke-miterlimit:10;stroke-dasharray:none;stroke-opacity:1"
         id="path22" /></g><g
       id="g24"
       transform="translate(251.1794,50.158)"><path
         d="M 0,0 -33.765,24.498"
         style="fill:none;stroke:#ec5664;stroke-width:2;stroke-linecap:round;stroke-linejoin:miter;stroke-miterlimit:10;stroke-dasharray:none;stroke-opacity:1"
         id="path26" /></g><g
       id="g28"
       transform="translate(257.6838,45.2801)"><path
         d="M 0,0 5.42,-3.794"
         style="fill:none;stroke:#ec5664;stroke-width:2;stroke-linecap:round;stroke-linejoin:miter;stroke-miterlimit:10;stroke-dasharray:none;stroke-opacity:1"
         id="path30" /></g><g
       id="g32"
       transform="translate(144.9509,189.99)"><path
         d="M 0,0 5.42,24.389"
         style="fill:none;stroke:#ec5664;stroke-width:2;stroke-linecap:round;stroke-linejoin:miter;stroke-miterlimit:10;stroke-dasharray:none;stroke-opacity:1"
         id="path34" /></g><g
       id="g36"
       transform="translate(131.4011,51.242)"><path
         d="M 0,0 -2.71,-20.054"
         style="fill:none;stroke:#ec5664;stroke-width:2;stroke-linecap:round;stroke-linejoin:miter;stroke-miterlimit:10;stroke-dasharray:none;stroke-opacity:1"
         id="path38" /></g><g
       id="g40"
       transform="translate(250.0959,189.448)"><path
         d="M 0,0 3.251,2.71"
         style="fill:none;stroke:#ec5664;stroke-width:2;stroke-linecap:round;stroke-linejoin:miter;stroke-miterlimit:10;stroke-dasharray:none;stroke-opacity:1"
         id="path42" /></g><g
       id="g44"><g
         id="g46"
         clip-path="url(#clipPath50)"><g
           id="g52"
           transform="translate(73.4089,212.8074)"><path
             d="m 0,0 c 1.518,0 2.764,-1.247 2.764,-2.764 0,-1.518 -1.246,-2.764 -2.764,-2.764 -1.518,0 -2.764,1.246 -2.764,2.764 C -2.764,-1.247 -1.518,0 0,0 Z"
             style="fill:none;stroke:#ec5664;stroke-width:2;stroke-linecap:round;stroke-linejoin:miter;stroke-miterlimit:10;stroke-dasharray:none;stroke-opacity:1"
             id="path54" /></g><g
           id="g56"
           transform="translate(36.5539,51.2957)"><path
             d="m 0,0 c 1.518,0 2.764,-1.246 2.764,-2.764 0,-1.517 -1.246,-2.764 -2.764,-2.764 -1.517,0 -2.764,1.247 -2.764,2.764 C -2.764,-1.246 -1.518,0 0,0 Z"
             style="fill:none;stroke:#ec5664;stroke-width:2;stroke-linecap:round;stroke-linejoin:miter;stroke-miterlimit:10;stroke-dasharray:none;stroke-opacity:1"
             id="path58" /></g><g
           id="g60"
           transform="translate(196.9812,170.6404)"><path
             d="m 0,0 c 0.976,0 1.789,-0.812 1.789,-1.788 0,-0.976 -0.813,-1.788 -1.789,-1.788 -0.976,0 -1.789,0.812 -1.789,1.788 C -1.789,-0.812 -1.03,0 0,0 Z"
             style="fill:none;stroke:#ec5664;stroke-width:2;stroke-linecap:round;stroke-linejoin:miter;stroke-miterlimit:10;stroke-dasharray:none;stroke-opacity:1"
             id="path62" /></g><g
           id="g64"
           transform="translate(209.3928,237.4676)"><path
             d="M 0,0 3.306,4.173"
             style="fill:none;stroke:#ec5664;stroke-width:2;stroke-linecap:round;stroke-linejoin:miter;stroke-miterlimit:10;stroke-dasharray:none;stroke-opacity:1"
             id="path66" /></g><g
           id="g68"
           transform="translate(250.6374,148.0945)"><path
             d="M 0,0 6.45,0.867"
             style="fill:none;stroke:#ec5664;stroke-width:2;stroke-linecap:round;stroke-linejoin:miter;stroke-miterlimit:10;stroke-dasharray:none;stroke-opacity:1"
             id="path70" /></g><g
           id="g72"
           transform="translate(20.8366,214.3792)"><path
             d="M 0,0 4.336,-3.794"
             style="fill:none;stroke:#ec5664;stroke-width:2;stroke-linecap:round;stroke-linejoin:miter;stroke-miterlimit:10;stroke-dasharray:none;stroke-opacity:1"
             id="path74" /></g><g
           id="g76"
           transform="translate(172.592,47.99)"><path
             d="M 0,0 3.252,-5.962"
             style="fill:none;stroke:#ec5664;stroke-width:2;stroke-linecap:round;stroke-linejoin:miter;stroke-miterlimit:10;stroke-dasharray:none;stroke-opacity:1"
             id="path78" /></g><g
           id="g80"
           transform="translate(105.3317,242.6707)"><path
             d="m 0,0 c 0,0 -1.409,-1.626 -1.138,-3.198 0.325,-1.572 2.222,-2.547 2.222,-2.547 -0.163,-0.054 1.843,-0.542 2.222,-2.547 0.38,-2.006 -1.138,-3.198 -1.138,-3.198 0,0 -1.409,-1.626 -1.138,-3.198 0.325,-1.572 2.222,-2.547 2.222,-2.547 -0.108,0 1.951,-0.976 2.222,-2.548 0.325,-1.571 -1.138,-3.197 -1.138,-3.197"
             style="fill:none;stroke:#ec5664;stroke-width:2;stroke-linecap:round;stroke-linejoin:miter;stroke-miterlimit:10;stroke-dasharray:none;stroke-opacity:1"
             id="path82" /></g><g
           id="g84"
           transform="translate(275.7316,82.5681)"><path
             d="M 0,0 C 0,0 -0.542,2.385 -2.223,3.144 -3.902,3.902 -6.07,2.765 -6.07,2.765 c 0.108,0.162 -1.735,-1.356 -3.848,-0.38 -2.114,0.975 -2.223,3.143 -2.223,3.143 0,0 -0.542,2.385 -2.221,3.144 -1.681,0.759 -3.849,-0.379 -3.849,-0.379 0.055,0.108 -2.168,-1.139 -3.848,-0.38 -1.68,0.759 -2.222,3.144 -2.222,3.144"
             style="fill:none;stroke:#ec5664;stroke-width:2;stroke-linecap:round;stroke-linejoin:miter;stroke-miterlimit:10;stroke-dasharray:none;stroke-opacity:1"
             id="path86" /></g><g
           id="g88"
           transform="translate(18.0725,103.8142)"><path
             d="m 0,0 v 0 c -0.054,0.163 -0.217,-2.005 -2.222,-2.764 -1.951,-0.758 -3.469,0.542 -3.469,0.542 0,0 -1.897,1.138 -3.469,0.542 -1.571,-0.596 -2.222,-2.764 -2.222,-2.764 -0.054,0.108 -0.65,-2.168 -2.222,-2.764 -1.571,-0.597 -3.468,0.542 -3.468,0.542"
             style="fill:none;stroke:#ec5664;stroke-width:2;stroke-linecap:round;stroke-linejoin:miter;stroke-miterlimit:10;stroke-dasharray:none;stroke-opacity:1"
             id="path90" /></g><g
           id="g92"
           transform="translate(86.9045,36.0662)"><path
             d="m 0,0 v 0 c -0.163,0.055 1.192,-1.626 0.325,-3.522 -0.867,-1.898 -2.927,-2.006 -2.927,-2.006 0,0 -2.168,-0.488 -2.926,-2.005 -0.705,-1.518 0.325,-3.524 0.325,-3.524 -0.109,0.055 1.03,-2.005 0.325,-3.522 -0.705,-1.518 -2.927,-2.006 -2.927,-2.006"
             style="fill:none;stroke:#ec5664;stroke-width:2;stroke-linecap:round;stroke-linejoin:miter;stroke-miterlimit:10;stroke-dasharray:none;stroke-opacity:1"
             id="path94" /></g><g
           id="g96"
           transform="translate(198.8781,53.0847)"><path
             d="m 0,0 c 0.867,0 1.572,-0.705 1.572,-1.572 0,-0.867 -0.705,-1.572 -1.572,-1.572 -0.867,0 -1.572,0.705 -1.572,1.572 C -1.572,-0.705 -0.867,0 0,0 Z"
             style="fill:none;stroke:#ec5664;stroke-width:2;stroke-linecap:round;stroke-linejoin:miter;stroke-miterlimit:10;stroke-dasharray:none;stroke-opacity:1"
             id="path98" /></g><g
           id="g100"
           transform="translate(30.5925,134.1658)"><path
             d="M 0,0 4.877,-4.336"
             style="fill:none;stroke:#ec5664;stroke-width:2;stroke-linecap:round;stroke-linejoin:miter;stroke-miterlimit:10;stroke-dasharray:none;stroke-opacity:1"
             id="path102" /></g><g
           id="g104"
           transform="translate(34.9284,134.7078)"><path
             d="M 0,0 -4.336,-4.878"
             style="fill:none;stroke:#ec5664;stroke-width:2;stroke-linecap:round;stroke-linejoin:miter;stroke-miterlimit:10;stroke-dasharray:none;stroke-opacity:1"
             id="path106" /></g><g
           id="g108"
           transform="translate(231.1262,114.1121)"><path
             d="M 0,0 6.396,1.246"
             style="fill:none;stroke:#ec5664;stroke-width:2;stroke-linecap:round;stroke-linejoin:miter;stroke-miterlimit:10;stroke-dasharray:none;stroke-opacity:1"
             id="path110" /></g><g
           id="g112"
           transform="translate(233.8361,117.906)"><path
             d="M 0,0 1.247,-6.396"
             style="fill:none;stroke:#ec5664;stroke-width:2;stroke-linecap:round;stroke-linejoin:miter;stroke-miterlimit:10;stroke-dasharray:none;stroke-opacity:1"
             id="path114" /></g><g
           id="g116"
           transform="translate(75.9563,175.6814)"><path
             d="M 0,0 2.493,-2.873"
             style="fill:none;stroke:#ec5664;stroke-width:2;stroke-linecap:round;stroke-linejoin:miter;stroke-miterlimit:10;stroke-dasharray:none;stroke-opacity:1"
             id="path118" /></g><g
           id="g120"
           transform="translate(78.6662,175.4099)"><path
             d="M 0,0 -2.873,-2.493"
             style="fill:none;stroke:#ec5664;stroke-width:2;stroke-linecap:round;stroke-linejoin:miter;stroke-miterlimit:10;stroke-dasharray:none;stroke-opacity:1"
             id="path122" /></g><g
           id="g124"
           transform="translate(155.0861,3.8728)"><path
             d="M 0,0 2.493,-2.873"
             style="fill:none;stroke:#ec5664;stroke-width:2;stroke-linecap:round;stroke-linejoin:miter;stroke-miterlimit:10;stroke-dasharray:none;stroke-opacity:1"
             id="path126" /></g><g
           id="g128"
           transform="translate(157.7961,3.6013)"><path
             d="M 0,0 -2.873,-2.493"
             style="fill:none;stroke:#ec5664;stroke-width:2;stroke-linecap:round;stroke-linejoin:miter;stroke-miterlimit:10;stroke-dasharray:none;stroke-opacity:1"
             id="path130" /></g><g
           id="g132"
           transform="translate(71.0783,60.781)"><path
             d="M 0,0 2.493,-2.873"
             style="fill:none;stroke:#ec5664;stroke-width:2;stroke-linecap:round;stroke-linejoin:miter;stroke-miterlimit:10;stroke-dasharray:none;stroke-opacity:1"
             id="path134" /></g><g
           id="g136"
           transform="translate(73.7883,60.5096)"><path
             d="M 0,0 -2.873,-2.493"
             style="fill:none;stroke:#ec5664;stroke-width:2;stroke-linecap:round;stroke-linejoin:miter;stroke-miterlimit:10;stroke-dasharray:none;stroke-opacity:1"
             id="path138" /></g><g
           id="g140"
           transform="translate(183.2692,204.948)"><path
             d="M 0,0 2.493,-2.872"
             style="fill:none;stroke:#ec5664;stroke-width:2;stroke-linecap:round;stroke-linejoin:miter;stroke-miterlimit:10;stroke-dasharray:none;stroke-opacity:1"
             id="path142" /></g><g
           id="g144"
           transform="translate(185.9792,204.6775)"><path
             d="M 0,0 -2.873,-2.493"
             style="fill:none;stroke:#ec5664;stroke-width:2;stroke-linecap:round;stroke-linejoin:miter;stroke-miterlimit:10;stroke-dasharray:none;stroke-opacity:1"
             id="path146" /></g></g></g></g></svg>
